<svg id="Group_47" data-name="Group 47" xmlns="http://www.w3.org/2000/svg" width="237.532" height="30" viewBox="0 0 237.532 30">
  <path id="Path_38" data-name="Path 38" d="M196.959,263.2a7.659,7.659,0,0,0-2.281-2.466,11.133,11.133,0,0,0-3.452-1.582,16.114,16.114,0,0,0-4.336-.555q-.576,0-1.13.02t-1.13.021q-.576.041-1.151.062t-1.151.02H174.6v.576h4.561V287.4H174.6v.576h13.232V287.4h-4.561V259.291q.328-.04.966-.082t1.418-.041a15.207,15.207,0,0,1,3.39.329,4.854,4.854,0,0,1,2.3,1.171,4.956,4.956,0,0,1,1.295,2.24,12.611,12.611,0,0,1,.41,3.493q0,3.617-1.705,5.4a6.248,6.248,0,0,1-4.746,1.788c-.264,0-.557-.011-.864-.029-.087.048-.087.539.049.568.294.023.347.036.569.036a17.311,17.311,0,0,0,4.335-.535,12.7,12.7,0,0,0,3.637-1.521,8.152,8.152,0,0,0,2.507-2.425,5.849,5.849,0,0,0,.945-3.288A6.353,6.353,0,0,0,196.959,263.2Z" transform="translate(-174.603 -258.593)" fill="#fff"/>
  <path id="Path_39" data-name="Path 39" d="M220.414,287.784c0,.274-.007.555-.021.843s-.021.651-.021,1.089a25.61,25.61,0,0,0,.164,2.836,8.5,8.5,0,0,0,.719,2.672A4.972,4.972,0,0,0,222.9,297.2a4.867,4.867,0,0,0,2.9.781,7.2,7.2,0,0,0,2.979-.534,5.475,5.475,0,0,0,1.849-1.294,5.618,5.618,0,0,0,1.007-1.541q.328-.78.493-1.274l.616.123a11.846,11.846,0,0,1-.472,1.295,5.962,5.962,0,0,1-1.11,1.685,6.738,6.738,0,0,1-2.055,1.479,7.613,7.613,0,0,1-3.349.637,10.7,10.7,0,0,1-3.8-.658A8.68,8.68,0,0,1,218.934,296a8.527,8.527,0,0,1-1.973-2.938,9.94,9.94,0,0,1-.7-3.8,8.95,8.95,0,0,1,.72-3.513,9.871,9.871,0,0,1,4.911-5.137,8.145,8.145,0,0,1,6.082-.39,7.264,7.264,0,0,1,2.445,1.336,7.35,7.35,0,0,1,1.89,2.445,8.414,8.414,0,0,1,.76,3.78Zm8.465-.575a7.563,7.563,0,0,0,.082-1.069v-1.027a8.284,8.284,0,0,0-.268-2.3,3.761,3.761,0,0,0-.74-1.439,2.621,2.621,0,0,0-1.151-.76,4.6,4.6,0,0,0-1.459-.226,4.335,4.335,0,0,0-2.3.555,4.085,4.085,0,0,0-1.438,1.5,7.71,7.71,0,0,0-.8,2.178,16.97,16.97,0,0,0-.349,2.589Z" transform="translate(-194.236 -268.592)" fill="#fff"/>
  <path id="Path_40" data-name="Path 40" d="M252.483,275.8h3.164v-5.3q.328.124.617.206a4.056,4.056,0,0,0,.987.082,3.532,3.532,0,0,0,1.069-.144,2.681,2.681,0,0,0,.863-.472v5.63h5.836v.575h-5.836v13.438a6.383,6.383,0,0,0,.226,1.87,2.824,2.824,0,0,0,.6,1.11,1.78,1.78,0,0,0,.8.513,3.05,3.05,0,0,0,.842.124,2.89,2.89,0,0,0,2.322-1.048,5.08,5.08,0,0,0,1.13-2.4l.576.206a9.563,9.563,0,0,1-.37,1.192,4.157,4.157,0,0,1-.76,1.254,4,4,0,0,1-1.336.986,4.776,4.776,0,0,1-2.055.391q-3.083,0-4.295-1.192a4.511,4.511,0,0,1-1.212-3.37V276.379h-3.164Z" transform="translate(-211.306 -264.051)" fill="#fff"/>
  <path id="Path_41" data-name="Path 41" d="M285.159,287.784c0,.274-.007.555-.021.843s-.021.651-.021,1.089a25.6,25.6,0,0,0,.164,2.836,8.5,8.5,0,0,0,.719,2.672,4.972,4.972,0,0,0,1.644,1.973,4.869,4.869,0,0,0,2.9.781,7.2,7.2,0,0,0,2.979-.534,5.473,5.473,0,0,0,1.849-1.294,5.6,5.6,0,0,0,1.007-1.541q.328-.78.493-1.274l.616.123a11.813,11.813,0,0,1-.472,1.295,5.961,5.961,0,0,1-1.11,1.685,6.731,6.731,0,0,1-2.055,1.479,7.612,7.612,0,0,1-3.349.637,10.706,10.706,0,0,1-3.8-.658A8.672,8.672,0,0,1,283.68,296a8.519,8.519,0,0,1-1.973-2.938,9.931,9.931,0,0,1-.7-3.8,8.95,8.95,0,0,1,.72-3.513,9.877,9.877,0,0,1,4.911-5.137,8.145,8.145,0,0,1,6.082-.39,7.264,7.264,0,0,1,2.445,1.336,7.35,7.35,0,0,1,1.89,2.445,8.414,8.414,0,0,1,.76,3.78Zm8.465-.575a7.558,7.558,0,0,0,.082-1.069v-1.027a8.3,8.3,0,0,0-.267-2.3,3.767,3.767,0,0,0-.74-1.439,2.626,2.626,0,0,0-1.151-.76,4.6,4.6,0,0,0-1.459-.226,4.335,4.335,0,0,0-2.3.555,4.084,4.084,0,0,0-1.438,1.5,7.725,7.725,0,0,0-.8,2.178,16.986,16.986,0,0,0-.349,2.589Z" transform="translate(-224.749 -268.592)" fill="#fff"/>
  <path id="Path_42" data-name="Path 42" d="M318.006,297.474h3.164V280.994h-3.164v-.575h6.616v4.151h.082a8.281,8.281,0,0,1,.535-1.4,6.089,6.089,0,0,1,1.027-1.5,5.828,5.828,0,0,1,1.582-1.212,4.7,4.7,0,0,1,2.24-.493,4.045,4.045,0,0,1,1.644.308,3.561,3.561,0,0,1,1.151.781,2.883,2.883,0,0,1,.657,1.089,3.883,3.883,0,0,1,.206,1.233,2.139,2.139,0,0,1-.617,1.808,2.364,2.364,0,0,1-1.438.452q-1.809,0-1.808-1.15a1.778,1.778,0,0,1,.082-.6c.054-.15.116-.3.185-.452a3.77,3.77,0,0,0,.185-.514,3.167,3.167,0,0,0,.082-.822q0-1.315-1.438-1.315a2.546,2.546,0,0,0-1.4.493,5.152,5.152,0,0,0-1.377,1.439A9.026,9.026,0,0,0,325.136,285a9.954,9.954,0,0,0-.432,3.061v9.411h3.575v.576H318.006Z" transform="translate(-242.185 -268.666)" fill="#fff"/>
  <path id="Path_43" data-name="Path 43" d="M352.594,292.222h.452a15.239,15.239,0,0,0,.74,1.993A7.015,7.015,0,0,0,355,296.065a5.96,5.96,0,0,0,1.87,1.377,6.109,6.109,0,0,0,2.671.534,3.709,3.709,0,0,0,2.343-.8,3.108,3.108,0,0,0,1.027-2.609,2.656,2.656,0,0,0-.8-2.2,6.273,6.273,0,0,0-1.87-1.007l-3.206-1.11q-.616-.205-1.336-.514a4.825,4.825,0,0,1-1.336-.863,4.2,4.2,0,0,1-1.007-1.418,5.409,5.409,0,0,1-.391-2.219,5.067,5.067,0,0,1,.452-2.137,5.445,5.445,0,0,1,3.1-2.877,6.648,6.648,0,0,1,2.363-.411,6.037,6.037,0,0,1,1.459.144q.555.145.966.288c.273.1.52.191.74.288a1.93,1.93,0,0,0,.781.144.718.718,0,0,0,.657-.329h.452v4.685h-.452a17.848,17.848,0,0,0-.657-1.747,7.021,7.021,0,0,0-.884-1.5,3.6,3.6,0,0,0-1.274-1.027,4.049,4.049,0,0,0-1.788-.37,4.74,4.74,0,0,0-3.062.884,2.888,2.888,0,0,0-1.089,2.363,2.316,2.316,0,0,0,.924,1.993,9.679,9.679,0,0,0,2.733,1.253l3,.987a8.647,8.647,0,0,1,3.164,1.808,3.964,3.964,0,0,1,1.233,3.041,5.77,5.77,0,0,1-.431,2.178,5.286,5.286,0,0,1-1.274,1.87,6.5,6.5,0,0,1-2.055,1.294,7.313,7.313,0,0,1-2.774.493,7.035,7.035,0,0,1-1.664-.185q-.761-.185-1.4-.39t-1.171-.391a3.04,3.04,0,0,0-.987-.185.966.966,0,0,0-.657.185,1.7,1.7,0,0,0-.329.391h-.452Z" transform="translate(-258.485 -268.592)" fill="#fff"/>
  <path id="Path_44" data-name="Path 44" d="M388.767,287.784c0,.274-.007.555-.021.843s-.021.651-.021,1.089a25.6,25.6,0,0,0,.164,2.836,8.5,8.5,0,0,0,.719,2.672,4.972,4.972,0,0,0,1.644,1.973,4.867,4.867,0,0,0,2.9.781,7.2,7.2,0,0,0,2.979-.534,5.487,5.487,0,0,0,1.849-1.294,5.628,5.628,0,0,0,1.007-1.541q.328-.78.493-1.274l.617.123a11.79,11.79,0,0,1-.473,1.295,5.94,5.94,0,0,1-1.11,1.685,6.723,6.723,0,0,1-2.054,1.479,7.614,7.614,0,0,1-3.35.637,10.7,10.7,0,0,1-3.8-.658A8.681,8.681,0,0,1,387.287,296a8.535,8.535,0,0,1-1.973-2.938,9.94,9.94,0,0,1-.7-3.8,8.95,8.95,0,0,1,.72-3.513,9.876,9.876,0,0,1,4.911-5.137,8.145,8.145,0,0,1,6.082-.39,7.264,7.264,0,0,1,2.445,1.336,7.346,7.346,0,0,1,1.89,2.445,8.416,8.416,0,0,1,.76,3.78Zm8.465-.575a7.544,7.544,0,0,0,.082-1.069v-1.027a8.3,8.3,0,0,0-.267-2.3,3.744,3.744,0,0,0-.74-1.439,2.621,2.621,0,0,0-1.151-.76,4.6,4.6,0,0,0-1.459-.226,4.336,4.336,0,0,0-2.3.555,4.086,4.086,0,0,0-1.438,1.5,7.707,7.707,0,0,0-.8,2.178,16.97,16.97,0,0,0-.35,2.589Z" transform="translate(-273.577 -268.592)" fill="#fff"/>
  <path id="Path_45" data-name="Path 45" d="M421.458,297.474h3.164V280.994h-3.164v-.575h6.617v4.4h.082q.247-.533.72-1.356a7.152,7.152,0,0,1,1.294-1.6,7.038,7.038,0,0,1,5.055-1.89,7.032,7.032,0,0,1,4.417,1.315,4.964,4.964,0,0,1,1.706,4.192v12h3.164v.576H434.65v-.576h3.164V284.2a4.31,4.31,0,0,0-.76-2.63,2.748,2.748,0,0,0-2.363-1.027,5.7,5.7,0,0,0-2.507.575,6.577,6.577,0,0,0-2.1,1.6,7.589,7.589,0,0,0-1.418,2.424,8.749,8.749,0,0,0-.514,3.041v9.288h3.165v.576h-9.863Z" transform="translate(-290.939 -268.666)" fill="#fff"/>
  <path id="Path_46" data-name="Path 46" d="M477.164,271.983l-4.086,11.252H473L464.53,259.4H468.8v-.576h-12.37v.576h3.7l10.48,29.3h1.109l5.812-15.944C477.682,272.286,477.332,271.875,477.164,271.983Z" transform="translate(-307.422 -258.702)" fill="#fff"/>
  <path id="Path_47" data-name="Path 47" d="M506.445,258.825v.575h4.4l-8.631,23.835h-.082L493.664,259.4h4.48v-.575H485.815v.575h3.452l10.6,29.3H500.9l10.644-29.3h3.7v-.575Z" transform="translate(-321.269 -258.703)" fill="#fff"/>
  <path id="Path_48" data-name="Path 48" d="M535.279,287.784q0,.412-.02.843t-.021,1.089a25.6,25.6,0,0,0,.164,2.836,8.525,8.525,0,0,0,.72,2.672,4.968,4.968,0,0,0,1.644,1.973,4.866,4.866,0,0,0,2.9.781,7.2,7.2,0,0,0,2.979-.534,5.476,5.476,0,0,0,1.849-1.294,5.618,5.618,0,0,0,1.007-1.541q.328-.78.493-1.274l.616.123a11.726,11.726,0,0,1-.473,1.295,5.945,5.945,0,0,1-1.11,1.685,6.73,6.73,0,0,1-2.055,1.479,7.61,7.61,0,0,1-3.349.637,10.7,10.7,0,0,1-3.8-.658A8.68,8.68,0,0,1,533.8,296a8.527,8.527,0,0,1-1.972-2.938,9.93,9.93,0,0,1-.7-3.8,8.958,8.958,0,0,1,.719-3.513,9.875,9.875,0,0,1,4.911-5.137,8.145,8.145,0,0,1,6.082-.39,7.265,7.265,0,0,1,2.445,1.336,7.344,7.344,0,0,1,1.89,2.445,8.414,8.414,0,0,1,.76,3.78Zm8.466-.575a7.618,7.618,0,0,0,.082-1.069v-1.027a8.3,8.3,0,0,0-.267-2.3,3.76,3.76,0,0,0-.74-1.439,2.624,2.624,0,0,0-1.151-.76,4.6,4.6,0,0,0-1.459-.226,4.333,4.333,0,0,0-2.3.555,4.083,4.083,0,0,0-1.439,1.5,7.729,7.729,0,0,0-.8,2.178,17.086,17.086,0,0,0-.349,2.589Z" transform="translate(-342.624 -268.592)" fill="#fff"/>
  <path id="Path_49" data-name="Path 49" d="M570.379,292.222h.453a15.234,15.234,0,0,0,.739,1.993,7.057,7.057,0,0,0,1.212,1.849,5.962,5.962,0,0,0,1.87,1.377,6.107,6.107,0,0,0,2.671.534,3.71,3.71,0,0,0,2.343-.8,3.11,3.11,0,0,0,1.027-2.609,2.658,2.658,0,0,0-.8-2.2,6.271,6.271,0,0,0-1.87-1.007l-3.205-1.11q-.616-.205-1.336-.514a4.817,4.817,0,0,1-1.336-.863,4.2,4.2,0,0,1-1.007-1.418,5.407,5.407,0,0,1-.391-2.219,5.057,5.057,0,0,1,.452-2.137,5.446,5.446,0,0,1,3.1-2.877,6.65,6.65,0,0,1,2.363-.411,6.033,6.033,0,0,1,1.459.144q.554.145.966.288c.274.1.52.191.74.288a1.933,1.933,0,0,0,.781.144.718.718,0,0,0,.658-.329h.452v4.685h-.452a17.7,17.7,0,0,0-.658-1.747,7.023,7.023,0,0,0-.884-1.5,3.6,3.6,0,0,0-1.274-1.027,4.052,4.052,0,0,0-1.788-.37,4.739,4.739,0,0,0-3.062.884,2.887,2.887,0,0,0-1.089,2.363,2.315,2.315,0,0,0,.925,1.993,9.682,9.682,0,0,0,2.732,1.253l3,.987a8.653,8.653,0,0,1,3.164,1.808,3.966,3.966,0,0,1,1.233,3.041,5.772,5.772,0,0,1-.432,2.178,5.285,5.285,0,0,1-1.274,1.87,6.5,6.5,0,0,1-2.055,1.294,7.309,7.309,0,0,1-2.774.493,7.041,7.041,0,0,1-1.664-.185q-.761-.185-1.4-.39t-1.171-.391a3.039,3.039,0,0,0-.986-.185.967.967,0,0,0-.658.185,1.7,1.7,0,0,0-.328.391h-.453Z" transform="translate(-361.121 -268.592)" fill="#fff"/>
  <path id="Path_50" data-name="Path 50" d="M598.905,275.8h3.164v-5.3q.328.124.616.206a4.061,4.061,0,0,0,.987.082,3.528,3.528,0,0,0,1.069-.144,2.682,2.682,0,0,0,.863-.472v5.63h5.836v.575H605.6v13.438a6.385,6.385,0,0,0,.226,1.87,2.836,2.836,0,0,0,.6,1.11,1.779,1.779,0,0,0,.8.513,3.052,3.052,0,0,0,.843.124,2.889,2.889,0,0,0,2.322-1.048,5.076,5.076,0,0,0,1.13-2.4l.575.206a9.571,9.571,0,0,1-.369,1.192,4.161,4.161,0,0,1-.761,1.254,3.99,3.99,0,0,1-1.336.986,4.775,4.775,0,0,1-2.055.391q-3.083,0-4.294-1.192a4.511,4.511,0,0,1-1.212-3.37V276.379h-3.164Z" transform="translate(-374.565 -264.051)" fill="#fff"/>
</svg>
